<?xml version="1.0" encoding="UTF-8"?>
<svg id="Capa_1" data-name="Capa 1" xmlns="http://www.w3.org/2000/svg" viewBox="0 0 500 160.24">
  <defs>
    <style>
      .cls-1 {
        fill: #f24026;
      }
    </style>
  </defs>
  <path class="cls-1" d="M392.18,90.63c0-24.27,15.19-42.93,45.41-42.93s45.41,18.66,45.41,42.93-15.19,42.93-45.41,42.93-45.41-18.66-45.41-42.93ZM455.81,118.43c4.62-6.44,6.94-15.74,6.94-27.8s-2.31-21.3-6.94-27.74c-4.57-6.44-10.68-9.69-18.22-9.69s-13.65,3.25-18.27,9.69c-4.57,6.44-6.88,15.69-6.88,27.74s2.31,21.36,6.88,27.8c4.62,6.44,10.73,9.63,18.27,9.63s13.65-3.19,18.22-9.63Z"/>
  <path class="cls-1" d="M182.21,49.35v47c0,8.42-1.82,15.36-5.39,20.7-4.19,6.22-11.4,9.36-21.58,9.36-7.1,0-12.72-2.2-16.73-6.55-4.02-4.4-6-11.67-6-21.74v-48.77c-6.7,0-18.7,0-18.7,0l-.29,46.12c.06,25.27,14.69,38.09,41.72,38.09,11.72,0,20.58-3.8,26.58-11.45,5.01-6.44,7.54-14.75,7.54-24.88v-47.89h-7.15Z"/>
  <path class="cls-1" d="M261.63,126.37c-.4.02-.86.04-1.39.04-5.95,0-11.41-1.21-16.44-3.69-10.76-5.22-16.17-15.96-16.17-32.09s5.41-26.53,16.17-32.03c5.03-2.48,10.49-3.75,16.44-3.75h25.95v-5.5h-25.95c-10.43,0-19.83,1.76-28.18,5.28-8.36,3.58-14.53,8.42-18.46,14.64-3.99,6.22-5.96,13.32-5.96,21.35s1.97,15.2,5.9,21.41c3.93,6.22,10.1,11.07,18.51,14.59,8.41,3.53,17.8,5.29,28.18,5.29h25.95v-5.49l-24.55-.05Z"/>
  <path class="cls-1" d="M353.53,126.37c-.4.02-.86.04-1.39.04-5.96,0-11.42-1.21-16.44-3.69-10.76-5.22-16.17-15.96-16.17-32.09s5.41-26.53,16.17-32.03c5.03-2.48,10.49-3.75,16.44-3.75h25.94v-5.5h-25.94c-10.43,0-19.83,1.76-28.18,5.28-8.36,3.58-14.53,8.42-18.46,14.64-3.99,6.22-5.96,13.32-5.96,21.35s1.97,15.2,5.9,21.41c3.93,6.22,10.1,11.07,18.51,14.59,8.41,3.53,17.8,5.29,28.18,5.29h25.94v-5.49l-24.55-.05Z"/>
  <path class="cls-1" d="M89.85,69.04c-3.94-6.24-10.13-11.09-18.57-14.63-8.43-3.53-17.85-5.3-28.26-5.3h-26.02v3.5h12.99c1.54,0,2.87,1.57,3.62,2.8h8.02c.4-.03.86-.04,1.4-.04,5.97,0,11.45,1.22,16.49,3.7,10.79,5.25,16.21,15.27,16.21,31.45s-5.42,25.68-16.21,31.2c-5.04,2.48-10.52,3.75-16.49,3.75-1.16,0-9.34.05-9.34.05-.72,1.3-2.09,2.89-3.69,2.89h-12.99v3.5h26.02c10.46,0,19.88-1.76,28.26-5.3,8.38-3.59,14.57-8.45,18.51-14.68,4-6.24,5.97-13.36,5.97-21.41s-1.97-15.24-5.92-21.47Z"/>
  <polygon class="cls-1" points="438.02 42.59 433.63 42.59 440.81 26.67 459.4 26.67 438.02 42.59"/>
</svg>